<svg width="24" height="24" viewBox="0 0 24 24" fill="#fff" xmlns="http://www.w3.org/2000/svg">
<g clip-path="url(#clip0_4418_7383)">
<path d="M14.2199 21.6293C13.0399 21.6293 11.3699 20.7993 10.0499 16.8293L9.32988 14.6693L7.16988 13.9493C3.20988 12.6293 2.37988 10.9593 2.37988 9.77934C2.37988 8.60934 3.20988 6.92934 7.16988 5.59934L15.6599 2.76934C17.7799 2.05934 19.5499 2.26934 20.6399 3.34934C21.7299 4.42934 21.9399 6.20934 21.2299 8.32934L18.3999 16.8193C17.0699 20.7993 15.3999 21.6293 14.2199 21.6293ZM7.63988 7.02934C4.85988 7.95934 3.86988 9.05934 3.86988 9.77934C3.86988 10.4993 4.85988 11.5993 7.63988 12.5193L10.1599 13.3593C10.3799 13.4293 10.5599 13.6093 10.6299 13.8293L11.4699 16.3493C12.3899 19.1293 13.4999 20.1193 14.2199 20.1193C14.9399 20.1193 16.0399 19.1293 16.9699 16.3493L19.7999 7.85934C20.3099 6.31934 20.2199 5.05934 19.5699 4.40934C18.9199 3.75934 17.6599 3.67934 16.1299 4.18934L7.63988 7.02934Z"/>
<path d="M10.11 14.4C9.92005 14.4 9.73005 14.33 9.58005 14.18C9.29005 13.89 9.29005 13.41 9.58005 13.12L13.16 9.53C13.45 9.24 13.93 9.24 14.22 9.53C14.51 9.82 14.51 10.3 14.22 10.59L10.64 14.18C10.5 14.33 10.3 14.4 10.11 14.4Z"/>
</g>
<defs>
<clipPath id="clip0_4418_7383">
<rect width="24" height="24" fill="white"/>
</clipPath>
</defs>
</svg>