<svg width="24" height="24" viewBox="0 0 24 24" fill="none" xmlns="http://www.w3.org/2000/svg">
<g clip-path="url(#clip0_4418_9537)">
<path d="M10.49 2.23055L5.50003 4.11055C4.35003 4.54055 3.41003 5.90055 3.41003 7.12055V14.5505C3.41003 15.7305 4.19003 17.2805 5.14003 17.9905L9.44003 21.2005C10.85 22.2605 13.17 22.2605 14.58 21.2005L18.88 17.9905C19.83 17.2805 20.61 15.7305 20.61 14.5505V7.12055C20.61 5.89055 19.67 4.53055 18.52 4.10055L13.53 2.23055C12.68 1.92055 11.32 1.92055 10.49 2.23055Z" stroke="#fff" stroke-width="1.5" stroke-linecap="round" stroke-linejoin="round"/>
<path d="M14.15 13.4395L9.90002 9.18945" stroke="#fff" stroke-width="1.5" stroke-miterlimit="10" stroke-linecap="round" stroke-linejoin="round"/>
<path d="M14.1 9.24023L9.84998 13.4902" stroke="#fff" stroke-width="1.5" stroke-miterlimit="10" stroke-linecap="round" stroke-linejoin="round"/>
</g>
<defs>
<clipPath id="clip0_4418_9537">
<rect width="24" height="24" fill="none"/>
</clipPath>
</defs>
</svg>